<svg width="24" height="24" viewBox="0 0 24 24" fill="none" xmlns="http://www.w3.org/2000/svg">
<path d="M22.3781 6.89065C22.1626 6.71353 21.9021 6.59962 21.6258 6.56155C21.3494 6.52349 21.0679 6.56277 20.8125 6.67503L16.0687 8.7844L13.3125 3.81565C13.1807 3.58368 12.9899 3.39076 12.7593 3.25655C12.5288 3.12234 12.2668 3.05164 12 3.05164C11.7332 3.05164 11.4712 3.12234 11.2406 3.25655C11.0101 3.39076 10.8192 3.58368 10.6875 3.81565L7.93123 8.7844L3.18748 6.67503C2.93202 6.56078 2.64968 6.52026 2.3724 6.55808C2.09512 6.59589 1.83394 6.71051 1.6184 6.889C1.40286 7.06748 1.24154 7.3027 1.15269 7.56807C1.06383 7.83343 1.05099 8.11837 1.1156 8.39065L3.49685 18.5438C3.54239 18.7403 3.62735 18.9256 3.7466 19.0884C3.86585 19.2511 4.0169 19.388 4.1906 19.4907C4.42577 19.6314 4.69465 19.7059 4.96873 19.7063C5.10196 19.706 5.2345 19.6871 5.36248 19.65C9.70294 18.45 14.2876 18.45 18.6281 19.65C19.0244 19.7542 19.4459 19.6969 19.8 19.4907C19.9747 19.3893 20.1266 19.2528 20.246 19.0899C20.3654 18.9269 20.4498 18.741 20.4937 18.5438L22.8844 8.39065C22.9482 8.11829 22.9347 7.83349 22.8452 7.56843C22.7558 7.30336 22.594 7.0686 22.3781 6.89065ZM19.0312 18.2063C14.4272 16.9313 9.56333 16.9313 4.95935 18.2063L2.5781 8.05315L7.32185 10.1532C7.66224 10.3079 8.04856 10.3282 8.40328 10.2099C8.75801 10.0917 9.05489 9.84368 9.23435 9.51565L12 4.5469L14.7656 9.51565C14.9451 9.84368 15.2419 10.0917 15.5967 10.2099C15.9514 10.3282 16.3377 10.3079 16.6781 10.1532L21.4219 8.05315L19.0312 18.2063Z" fill="#162719"/>
</svg>
