<svg width="24" height="24" viewBox="0 0 24 24" fill="none" xmlns="http://www.w3.org/2000/svg">
<path d="M20.8406 11.5406L12.5906 1.04063C12.5205 0.950991 12.4308 0.878495 12.3285 0.828637C12.2262 0.778779 12.1138 0.752869 12 0.752869C11.8862 0.752869 11.7738 0.778779 11.6715 0.828637C11.5692 0.878495 11.4795 0.950991 11.4094 1.04063L3.15937 11.5406C3.05435 11.6707 2.99707 11.8328 2.99707 12C2.99707 12.1672 3.05435 12.3293 3.15937 12.4594L11.4094 22.9594C11.4795 23.049 11.5692 23.1215 11.6715 23.1714C11.7738 23.2212 11.8862 23.2471 12 23.2471C12.1138 23.2471 12.2262 23.2212 12.3285 23.1714C12.4308 23.1215 12.5205 23.049 12.5906 22.9594L20.8406 12.4594C20.9456 12.3293 21.0029 12.1672 21.0029 12C21.0029 11.8328 20.9456 11.6707 20.8406 11.5406ZM12.75 3.66563L19.0687 11.7094L12.75 14.5875V3.66563ZM11.25 14.5875L4.93125 11.7094L11.25 3.66563V14.5875ZM11.25 16.2375V20.3344L6.24375 13.9594L11.25 16.2375ZM12.75 16.2375L17.7562 13.9594L12.75 20.3344V16.2375Z" fill="#162719"/>
</svg>
